<?xml version="1.0" encoding="utf-8"?>
<!-- Generator: Adobe Illustrator 19.0.0, SVG Export Plug-In . SVG Version: 6.00 Build 0)  -->
<svg version="1.1" id="Layer_1" xmlns="http://www.w3.org/2000/svg" xmlns:xlink="http://www.w3.org/1999/xlink" x="0px" y="0px"
	 viewBox="0 0 1024 768" style="enable-background:new 0 0 1024 768;" xml:space="preserve">
<style type="text/css">
	.st0{fill:#F6F6FA;}
</style>
<path id="XMLID_1_" class="st0" d="M389.8,3.1c-35.2,67-93.1,229.2-7.7,274.7c17.9,9.5,26,4.3,38.2,14.1
	c36,29.1-36.8,113.6-31.8,216.1c1,19.5,7.7,102.2,70.7,159.7c65.6,59.9,149.3,53.5,160.7,52.4c57.9-5.4,70.7-32.4,107.7-46.3
	c16.3-6.1,29.8-7.1,37.3-7.7c50.2-4.4,63,23,131.5,38.1c41.8,9.2,79.5,17.5,103.3,0.2c5.6-4.1,17.1-1.6,24.8-9
	c18.5-17.6,7.4-56.1,5.3-64.9c-28-114,121.7-540.5-11.4-641.2c-48.7-36.9-91.8,2.8-254.4,9.6C611.5,5.3,485.4-22.7,400.5-48.5
	C398-36.9,400.3-16.8,389.8,3.1z"/>
<path id="XMLID_2_" class="st0" d="M1133.4,705.1"/>
<path id="XMLID_3_" class="st0" d="M1116.7,105.1"/>
<g id="XMLID_4_">
</g>
<g id="XMLID_5_">
</g>
<g id="XMLID_6_">
</g>
<g id="XMLID_7_">
</g>
<g id="XMLID_8_">
</g>
<g id="XMLID_9_">
</g>
<g id="XMLID_10_">
</g>
<g id="XMLID_11_">
</g>
<g id="XMLID_12_">
</g>
<g id="XMLID_13_">
</g>
<g id="XMLID_14_">
</g>
<g id="XMLID_15_">
</g>
<g id="XMLID_16_">
</g>
<g id="XMLID_17_">
</g>
<g id="XMLID_18_">
</g>
</svg>
