<?xml version="1.0" encoding="UTF-8" standalone="no"?>
<!-- Generator: Adobe Illustrator 19.0.0, SVG Export Plug-In . SVG Version: 6.00 Build 0)  -->

<svg
   xmlns:dc="http://purl.org/dc/elements/1.1/"
   xmlns:cc="http://creativecommons.org/ns#"
   xmlns:rdf="http://www.w3.org/1999/02/22-rdf-syntax-ns#"
   xmlns:svg="http://www.w3.org/2000/svg"
   xmlns="http://www.w3.org/2000/svg"
   xmlns:sodipodi="http://sodipodi.sourceforge.net/DTD/sodipodi-0.dtd"
   xmlns:inkscape="http://www.inkscape.org/namespaces/inkscape"
   version="1.1"
   id="Capa_1"
   x="0px"
   y="0px"
   viewBox="0 0 496 496"
   style="enable-background:new 0 0 496 496;"
   xml:space="preserve"
   sodipodi:docname="bunk.svg"
   inkscape:version="0.92.3 (3ce5693, 2018-03-11)"><metadata
   id="metadata128"><rdf:RDF><cc:Work
       rdf:about=""><dc:format>image/svg+xml</dc:format><dc:type
         rdf:resource="http://purl.org/dc/dcmitype/StillImage" /></cc:Work></rdf:RDF></metadata><defs
   id="defs126" /><sodipodi:namedview
   pagecolor="#ffffff"
   bordercolor="#666666"
   borderopacity="1"
   objecttolerance="10"
   gridtolerance="10"
   guidetolerance="10"
   inkscape:pageopacity="0"
   inkscape:pageshadow="2"
   inkscape:window-width="1869"
   inkscape:window-height="1025"
   id="namedview124"
   showgrid="false"
   inkscape:zoom="0.47580645"
   inkscape:cx="248"
   inkscape:cy="248"
   inkscape:window-x="51"
   inkscape:window-y="27"
   inkscape:window-maximized="1"
   inkscape:current-layer="Capa_1" />
<path
   style="fill:#00006e;fill-opacity:1"
   d="M464,0c-17.648,0-32,14.352-32,32v0.208C425.296,27.128,417.04,24,408,24H192  c-10.88,0-20.736,4.392-27.952,11.464C155.832,14.728,135.624,0,112,0C91.336,0,73.296,11.28,63.592,27.976  C61.584,12.248,48.272,0,32,0C14.352,0,0,14.352,0,32v464h64v-48h256v48h120h8h48V32C496,14.352,481.648,0,464,0z M48,480H16V32  c0-8.824,7.176-16,16-16s16,7.176,16,16V480z M192,40h216c13.232,0,24,10.768,24,24v56v8h-56h-56H168V64  C168,50.768,178.768,40,192,40z M120,112v16H64v-16H120z M64,96V84.696c2.488,4.136,5.456,7.944,8.888,11.304H64z M152,95.112V128  h-16v-21.48C141.992,103.664,147.408,99.808,152,95.112z M320,144v24H64v-24H320z M432,272h-96v-56h96V272z M432,200h-96v-56h40h56  V200z M320,184v104H192c-10.88,0-20.736,4.392-27.952,11.464C155.832,278.728,135.624,264,112,264c-20.384,0-38.2,10.984-48,27.304  V184H320z M112,360c-22.056,0-40-17.944-40-40s17.944-40,40-40s40,17.944,40,40S134.056,360,112,360z M72.888,360H64v-11.304  C66.488,352.832,69.456,356.64,72.888,360z M120,376v16H64v-16H120z M136,370.52c5.992-2.856,11.408-6.712,16-11.4V392h-16V370.52z   M168,328c0-13.232,10.768-24,24-24h128v88H168V328z M336,288h96v48h-96V288z M112,16c22.056,0,40,17.944,40,40s-17.944,40-40,40  S72,78.056,72,56S89.944,16,112,16z M64,432v-24h256v24H64z M336,480v-56h64v-16h-64v-56h96v56h-16v16h16v56H336z M480,480h-32V136  v-8v-8V64V32c0-8.824,7.176-16,16-16s16,7.176,16,16V480z"
   id="path81" />
<g
   id="g91"
   style="fill:#00006e;fill-opacity:1">
	<rect
   x="16"
   y="48"
   style="fill:#00006e;fill-opacity:1"
   width="32"
   height="32"
   id="rect83" />
	<rect
   x="448"
   y="48"
   style="fill:#00006e;fill-opacity:1"
   width="32"
   height="32"
   id="rect85" />
	<rect
   x="200"
   y="40"
   style="fill:#00006e;fill-opacity:1"
   width="16"
   height="88"
   id="rect87" />
	<rect
   x="200"
   y="304"
   style="fill:#00006e;fill-opacity:1"
   width="16"
   height="88"
   id="rect89" />
</g>
<g
   id="g93">
</g>
<g
   id="g95">
</g>
<g
   id="g97">
</g>
<g
   id="g99">
</g>
<g
   id="g101">
</g>
<g
   id="g103">
</g>
<g
   id="g105">
</g>
<g
   id="g107">
</g>
<g
   id="g109">
</g>
<g
   id="g111">
</g>
<g
   id="g113">
</g>
<g
   id="g115">
</g>
<g
   id="g117">
</g>
<g
   id="g119">
</g>
<g
   id="g121">
</g>
</svg>