<?xml version="1.0" encoding="iso-8859-1"?>
<!-- Generator: Adobe Illustrator 19.0.0, SVG Export Plug-In . SVG Version: 6.00 Build 0)  -->
<svg version="1.1" id="Layer_1" xmlns="http://www.w3.org/2000/svg" xmlns:xlink="http://www.w3.org/1999/xlink" x="0px" y="0px"
	 viewBox="0 0 512 512" style="enable-background:new 0 0 512 512;" xml:space="preserve">
<g transform="translate(1 1)">
	<g>
		<path d="M502.467,493.933h-8.533v-51.2v-68.267V178.2v-68.267V7.533c0-5.12-3.413-8.533-8.533-8.533s-8.533,3.413-8.533,8.533
			V101.4h-19.576c1.611-3.631,2.51-7.668,2.51-11.947v-10.24C459.8,63,447,50.2,430.787,50.2h-215.04
			c-16.213,0-29.013,12.8-29.013,29.013v10.24c0,4.279,0.899,8.316,2.509,11.947h-22.086c1.61-3.631,2.51-7.668,2.51-11.947v-10.24
			c0-16.213-12.8-29.013-29.013-29.013h-61.44C63,50.2,50.2,63,50.2,79.213v10.24c0,4.279,0.899,8.316,2.509,11.947H33.133V7.533
			C33.133,2.413,29.72-1,24.6-1s-8.533,3.413-8.533,8.533v102.4V178.2v196.267v68.267v51.2H7.533c-5.12,0-8.533,3.413-8.533,8.533
			S2.413,511,7.533,511h290.133h119.467h85.333c5.12,0,8.533-3.413,8.533-8.533S507.587,493.933,502.467,493.933z M33.133,186.733
			h256v128h-73.387c-16.213,0-29.013,12.8-29.013,29.013v10.24c0,4.279,0.899,8.316,2.509,11.947h-22.086
			c1.61-3.631,2.509-7.668,2.509-11.947v-10.24c0-16.213-12.8-29.013-29.013-29.013h-61.44c-16.213,0-29.013,12.8-29.013,29.013
			v10.24c0,4.279,0.899,8.316,2.509,11.947H33.133V186.733z M408.6,118.467v25.6H306.2v-25.6H408.6z M203.8,353.987v-10.24
			c0-6.827,5.12-11.947,11.947-11.947v0h73.387v34.133h-73.388C208.919,365.933,203.8,360.813,203.8,353.987z M442.733,353.987
			c0,6.827-5.12,11.947-11.947,11.947h-5.12V331.8h5.12c6.827,0,11.947,5.12,11.947,11.947V353.987z M408.6,263.533V280.6H306.2
			v-17.067H408.6z M306.2,246.467V229.4h102.4v17.067H306.2z M408.6,212.333H306.2v-17.067h102.4V212.333z M306.2,297.667h102.4
			v17.067H306.2V297.667z M408.6,331.8v17.067H306.2V331.8H408.6z M306.2,374.467v-8.533h102.4v8.533V383H306.2V374.467z
			 M408.6,178.2H306.2v-17.067h102.4V178.2z M306.2,400.067h102.4v17.067H306.2V400.067z M425.667,383h5.12h46.08v51.2h-51.2V383z
			 M476.867,365.933h-19.576c1.61-3.631,2.509-7.668,2.509-11.947v-10.24c0-16.213-12.8-29.013-29.013-29.013h-5.12v-128h51.2
			V365.933z M67.267,353.987v-10.24c0-6.827,5.12-11.947,11.947-11.947h61.44c6.827,0,11.947,5.12,11.947,11.947v10.24
			c0,6.827-5.12,11.947-11.947,11.947h-61.44C72.387,365.933,67.267,360.813,67.267,353.987z M33.133,383h46.08h61.44h75.093h73.387
			v51.2h-256V383z M306.2,442.733V434.2h102.4v8.533v8.533H306.2V442.733z M425.667,451.267h51.2v42.667h-51.2V451.267z
			 M476.867,169.667h-51.2v-51.2h5.12h46.08V169.667z M203.8,89.453v-10.24c0-6.827,5.12-11.947,11.947-11.947h215.04
			c6.827,0,11.947,5.12,11.947,11.947v10.24c0,6.827-5.12,11.947-11.947,11.947h-13.653H297.667h-81.92
			C208.92,101.4,203.8,96.28,203.8,89.453z M67.267,89.453v-10.24c0-6.827,5.12-11.947,11.947-11.947h61.44
			c6.827,0,11.947,5.12,11.947,11.947v10.24c0,6.827-5.12,11.947-11.947,11.947h-61.44C72.387,101.4,67.267,96.28,67.267,89.453z
			 M79.213,118.467h61.44h75.093h73.387v51.2h-256v-51.2H79.213z M33.133,451.267h256v42.667h-256V451.267z M306.2,493.933v-25.6
			h102.4v25.6H306.2z"/>
	</g>
</g>
<g>
</g>
<g>
</g>
<g>
</g>
<g>
</g>
<g>
</g>
<g>
</g>
<g>
</g>
<g>
</g>
<g>
</g>
<g>
</g>
<g>
</g>
<g>
</g>
<g>
</g>
<g>
</g>
<g>
</g>
</svg>
