<?xml version="1.0" standalone="no"?><!-- Generator: Gravit.io --><svg xmlns="http://www.w3.org/2000/svg" xmlns:xlink="http://www.w3.org/1999/xlink" style="isolation:isolate" viewBox="0 0 1366 768" width="1366" height="768"><defs><clipPath id="_clipPath_MauPZK7pgnkpj9g7BIWczEqBLHfZRi9E"><rect width="1366" height="768"/></clipPath></defs><g clip-path="url(#_clipPath_MauPZK7pgnkpj9g7BIWczEqBLHfZRi9E)"><path d=" M 390.5 447.149 L 390.5 447.149 L 390.5 392.12 C 390.5 389.066 388.02 386.586 384.966 386.586 L 260.034 386.586 C 256.98 386.586 254.5 389.066 254.5 392.12 L 254.5 447.149 C 254.5 450.203 256.98 452.683 260.034 452.683 L 372.124 452.683 L 377.286 456.247 L 390.5 465.369 L 390.5 447.149 Z " fill-rule="evenodd" fill="rgb(0,145,234)"/><path d=" M 84.388 391.642 L 231.603 391.642 C 235.134 391.642 238 388.775 238 385.245 L 238 313.397 C 238 309.866 235.134 307 231.603 307 L 70.397 307 C 66.866 307 64 309.866 64 313.397 L 64 368.341 L 64 385.245 L 64 385.245 L 64 386.586 L 64 404.831 L 78.102 395.709 L 84.388 391.642 Z " fill-rule="evenodd" fill="rgb(48,63,159)"/><path d="M 102.701 325 L 199.299 325 C 202.446 325 205 327.24 205 330 L 205 330 C 205 332.76 202.446 335 199.299 335 L 102.701 335 C 99.554 335 97 332.76 97 330 L 97 330 C 97 327.24 99.554 325 102.701 325 Z" style="stroke:none;fill:#EBEBEB;stroke-miterlimit:10;"/><path d="M 102.701 341.916 L 199.299 341.916 C 202.446 341.916 205 344.156 205 346.916 L 205 346.916 C 205 349.675 202.446 351.916 199.299 351.916 L 102.701 351.916 C 99.554 351.916 97 349.675 97 346.916 L 97 346.916 C 97 344.156 99.554 341.916 102.701 341.916 Z" style="stroke:none;fill:#EBEBEB;stroke-miterlimit:10;"/><path d="M 101.59 358.464 L 162.41 358.464 C 164.943 358.464 167 360.52 167 363.054 L 167 363.874 C 167 366.407 164.943 368.464 162.41 368.464 L 101.59 368.464 C 99.057 368.464 97 366.407 97 363.874 L 97 363.054 C 97 360.52 99.057 358.464 101.59 358.464 Z" style="stroke:none;fill:#EBEBEB;stroke-miterlimit:10;"/><path d="M 299.09 404.831 L 359.91 404.831 C 362.443 404.831 364.5 406.888 364.5 409.421 L 364.5 410.241 C 364.5 412.775 362.443 414.831 359.91 414.831 L 299.09 414.831 C 296.557 414.831 294.5 412.775 294.5 410.241 L 294.5 409.421 C 294.5 406.888 296.557 404.831 299.09 404.831 Z" style="stroke:none;fill:#EBEBEB;stroke-miterlimit:10;"/><path d="M 322.847 420.978 L 358.653 420.978 C 360.638 420.978 362.25 422.59 362.25 424.575 L 362.25 427.381 C 362.25 429.366 360.638 430.978 358.653 430.978 L 322.847 430.978 C 320.862 430.978 319.25 429.366 319.25 427.381 L 319.25 424.575 C 319.25 422.59 320.862 420.978 322.847 420.978 Z" style="stroke:none;fill:#EBEBEB;stroke-miterlimit:10;"/><circle vector-effect="non-scaling-stroke" cx="0" cy="0" r="1" transform="matrix(6.5,0,0,6.5,294.5,156.5)" fill="rgb(224,224,224)"/><ellipse vector-effect="non-scaling-stroke" cx="0" cy="0" rx="1" ry="1" transform="matrix(15,0,0,15.388,442,294.225)" fill="rgb(224,224,224)"/><circle vector-effect="non-scaling-stroke" cx="0" cy="0" r="1" transform="matrix(7.875,0,0,7.875,446.125,98.125)" fill="rgb(224,224,224)"/><circle vector-effect="non-scaling-stroke" cx="0" cy="0" r="1" transform="matrix(9.5,0,0,9.5,122.5,101)" fill="rgb(224,224,224)"/><circle vector-effect="non-scaling-stroke" cx="0" cy="0" r="1" transform="matrix(8.725,0,0,8.725,105.725,620.75)" fill="rgb(224,224,224)"/><circle vector-effect="non-scaling-stroke" cx="0" cy="0" r="1" transform="matrix(5,0,0,5,156,491)" fill="rgb(235,235,235)"/><circle vector-effect="non-scaling-stroke" cx="0" cy="0" r="1" transform="matrix(13.5,0,0,13.5,397.5,631.5)" fill="rgb(224,224,224)"/><circle vector-effect="non-scaling-stroke" cx="0" cy="0" r="1" transform="matrix(8,0,0,8,717,102)" fill="rgb(224,224,224)"/><circle vector-effect="non-scaling-stroke" cx="0" cy="0" r="1" transform="matrix(9.5,0,0,9.5,686.5,211.5)" fill="rgb(224,224,224)"/><circle vector-effect="non-scaling-stroke" cx="0" cy="0" r="1" transform="matrix(6.5,0,0,6.5,901.5,54.5)" fill="rgb(224,224,224)"/><circle vector-effect="non-scaling-stroke" cx="0" cy="0" r="1" transform="matrix(6.5,0,0,6.5,157.5,195.5)" fill="rgb(224,224,224)"/><circle vector-effect="non-scaling-stroke" cx="0" cy="0" r="1" transform="matrix(6.5,0,0,6.5,226.5,238.5)" fill="rgb(224,224,224)"/><circle vector-effect="non-scaling-stroke" cx="0" cy="0" r="1" transform="matrix(6.5,0,0,6.5,536.5,437.478)" fill="rgb(224,224,224)"/><circle vector-effect="non-scaling-stroke" cx="0" cy="0" r="1" transform="matrix(6.5,0,0,6.5,581.5,94)" fill="rgb(224,224,224)"/><circle vector-effect="non-scaling-stroke" cx="0" cy="0" r="1" transform="matrix(6.5,0,0,6.5,267.5,61.051)" fill="rgb(235,235,235)"/><circle vector-effect="non-scaling-stroke" cx="0" cy="0" r="1" transform="matrix(6.5,0,0,6.5,261,604.5)" fill="rgb(224,224,224)"/><circle vector-effect="non-scaling-stroke" cx="0" cy="0" r="1" transform="matrix(6.5,0,0,6.5,670.5,325)" fill="rgb(224,224,224)"/><circle vector-effect="non-scaling-stroke" cx="0" cy="0" r="1" transform="matrix(6.5,0,0,6.5,294.5,156.5)" fill="rgb(224,224,224)"/><line x1="123" y1="101" x2="294.5" y2="156.5" vector-effect="non-scaling-stroke" stroke-width="1" stroke="rgb(224,224,224)" stroke-linejoin="miter" stroke-linecap="square" stroke-miterlimit="3"/><line x1="265" y1="64" x2="294.5" y2="156.5" vector-effect="non-scaling-stroke" stroke-width="1" stroke="rgb(224,224,224)" stroke-linejoin="miter" stroke-linecap="square" stroke-miterlimit="3"/><line x1="157.5" y1="195.5" x2="267.5" y2="61" vector-effect="non-scaling-stroke" stroke-width="1" stroke="rgb(224,224,224)" stroke-linejoin="miter" stroke-linecap="square" stroke-miterlimit="3"/><line x1="123" y1="110" x2="157.5" y2="195.5" vector-effect="non-scaling-stroke" stroke-width="1" stroke="rgb(224,224,224)" stroke-linejoin="miter" stroke-linecap="square" stroke-miterlimit="3"/><line x1="157.5" y1="195.5" x2="226.5" y2="238.5" vector-effect="non-scaling-stroke" stroke-width="1" stroke="rgb(224,224,224)" stroke-linejoin="miter" stroke-linecap="square" stroke-miterlimit="3"/><line x1="226.5" y1="236.5" x2="294.5" y2="156.5" vector-effect="non-scaling-stroke" stroke-width="1" stroke="rgb(224,224,224)" stroke-linejoin="miter" stroke-linecap="square" stroke-miterlimit="3"/><line x1="294.5" y1="152.949" x2="442" y2="97.449" vector-effect="non-scaling-stroke" stroke-width="1" stroke="rgb(224,224,224)" stroke-linejoin="miter" stroke-linecap="square" stroke-miterlimit="3"/><line x1="442" y1="100.5" x2="448" y2="289" vector-effect="non-scaling-stroke" stroke-width="1" stroke="rgb(224,224,224)" stroke-linejoin="miter" stroke-linecap="square" stroke-miterlimit="3"/><line x1="294.5" y1="156.5" x2="430" y2="297" vector-effect="non-scaling-stroke" stroke-width="1" stroke="rgb(224,224,224)" stroke-linejoin="miter" stroke-linecap="square" stroke-miterlimit="3"/><line x1="97" y1="631.5" x2="151" y2="491" vector-effect="non-scaling-stroke" stroke-width="1" stroke="rgb(224,224,224)" stroke-linejoin="miter" stroke-linecap="square" stroke-miterlimit="3"/><line x1="97" y1="620.75" x2="259.5" y2="601.25" vector-effect="non-scaling-stroke" stroke-width="1" stroke="rgb(224,224,224)" stroke-linejoin="miter" stroke-linecap="square" stroke-miterlimit="3"/><line x1="156" y1="491" x2="260.5" y2="604.5" vector-effect="non-scaling-stroke" stroke-width="1" stroke="rgb(224,224,224)" stroke-linejoin="miter" stroke-linecap="square" stroke-miterlimit="3"/><line x1="254.5" y1="604.5" x2="397.5" y2="631.5" vector-effect="non-scaling-stroke" stroke-width="1" stroke="rgb(224,224,224)" stroke-linejoin="miter" stroke-linecap="square" stroke-miterlimit="3"/><line x1="397.5" y1="638" x2="536.5" y2="437.478" vector-effect="non-scaling-stroke" stroke-width="1" stroke="rgb(224,224,224)" stroke-linejoin="miter" stroke-linecap="square" stroke-miterlimit="3"/><line x1="536.5" y1="443.978" x2="670.5" y2="330" vector-effect="non-scaling-stroke" stroke-width="1" stroke="rgb(224,224,224)" stroke-linejoin="miter" stroke-linecap="square" stroke-miterlimit="3"/><line x1="448" y1="294.225" x2="536.5" y2="442.703" vector-effect="non-scaling-stroke" stroke-width="1" stroke="rgb(224,224,224)" stroke-linejoin="miter" stroke-linecap="square" stroke-miterlimit="3"/><line x1="254.5" y1="604.5" x2="326" y2="456.247" vector-effect="non-scaling-stroke" stroke-width="1" stroke="rgb(224,224,224)" stroke-linejoin="miter" stroke-linecap="square" stroke-miterlimit="3"/><line x1="686.5" y1="211.5" x2="445" y2="289" vector-effect="non-scaling-stroke" stroke-width="1" stroke="rgb(224,224,224)" stroke-linejoin="miter" stroke-linecap="square" stroke-miterlimit="3"/><line x1="294.5" y1="156.5" x2="717" y2="106" vector-effect="non-scaling-stroke" stroke-width="1" stroke="rgb(224,224,224)" stroke-linejoin="miter" stroke-linecap="square" stroke-miterlimit="3"/><line x1="444" y1="294.869" x2="399.5" y2="635.869" vector-effect="non-scaling-stroke" stroke-width="1" stroke="rgb(224,224,224)" stroke-linejoin="miter" stroke-linecap="square" stroke-miterlimit="3"/><line x1="442" y1="289" x2="581.5" y2="94" vector-effect="non-scaling-stroke" stroke-width="1" stroke="rgb(224,224,224)" stroke-linejoin="miter" stroke-linecap="square" stroke-miterlimit="3"/><line x1="397.5" y1="638" x2="430" y2="722" vector-effect="non-scaling-stroke" stroke-width="1" stroke="rgb(224,224,224)" stroke-linejoin="miter" stroke-linecap="square" stroke-miterlimit="3"/><line x1="97" y1="631.5" x2="36" y2="698" vector-effect="non-scaling-stroke" stroke-width="1" stroke="rgb(224,224,224)" stroke-linejoin="miter" stroke-linecap="square" stroke-miterlimit="3"/><line x1="686.5" y1="202" x2="670.5" y2="331.5" vector-effect="non-scaling-stroke" stroke-width="1" stroke="rgb(224,224,224)" stroke-linejoin="miter" stroke-linecap="square" stroke-miterlimit="3"/><line x1="686.5" y1="211.5" x2="717" y2="100.5" vector-effect="non-scaling-stroke" stroke-width="1" stroke="rgb(224,224,224)" stroke-linejoin="miter" stroke-linecap="square" stroke-miterlimit="3"/><line x1="717" y1="106" x2="901.5" y2="54.5" vector-effect="non-scaling-stroke" stroke-width="1" stroke="rgb(224,224,224)" stroke-linejoin="miter" stroke-linecap="square" stroke-miterlimit="3"/><line x1="686.5" y1="211.5" x2="749" y2="245" vector-effect="non-scaling-stroke" stroke-width="1" stroke="rgb(224,224,224)" stroke-linejoin="miter" stroke-linecap="square" stroke-miterlimit="3"/><line x1="536.5" y1="443.978" x2="717.75" y2="577" vector-effect="non-scaling-stroke" stroke-width="1" stroke="rgb(224,224,224)" stroke-linejoin="miter" stroke-linecap="square" stroke-miterlimit="3"/><circle vector-effect="non-scaling-stroke" cx="0" cy="0" r="1" transform="matrix(7.044,3.01,-3.01,7.044,36,698)" fill="rgb(224,224,224)"/><circle vector-effect="non-scaling-stroke" cx="0" cy="0" r="1" transform="matrix(8.25,0,0,8.25,430,722)" fill="rgb(224,224,224)"/><circle vector-effect="non-scaling-stroke" cx="0" cy="0" r="1" transform="matrix(-6.25,0,0,6.25,715.25,577)" fill="rgb(224,224,224)"/><circle vector-effect="non-scaling-stroke" cx="0" cy="0" r="1" transform="matrix(7.5,0,0,-7.5,750.5,245.5)" fill="rgb(224,224,224)"/><circle vector-effect="non-scaling-stroke" cx="0" cy="0" r="1" transform="matrix(6.5,0,0,6.5,307.5,500.25)" fill="rgb(224,224,224)"/><circle vector-effect="non-scaling-stroke" cx="0" cy="0" r="1" transform="matrix(7.75,0,0,7.75,418.75,486)" fill="rgb(224,224,224)"/><circle vector-effect="non-scaling-stroke" cx="0" cy="0" r="1" transform="matrix(38.6,0,0,38.6,358.9,128.85)" fill="rgb(40,53,147)"/><circle vector-effect="non-scaling-stroke" cx="0" cy="0" r="1" transform="matrix(38.6,0,0,38.6,588.525,232)" fill="rgb(63,81,181)"/><circle vector-effect="non-scaling-stroke" cx="0" cy="0" r="1" transform="matrix(38.6,0,0,38.6,202.6,609.35)" fill="rgb(25,118,210)"/><circle vector-effect="non-scaling-stroke" cx="0" cy="0" r="1" transform="matrix(38.6,0,0,38.6,480.6,549.089)" fill="rgb(68,138,255)"/><circle vector-effect="non-scaling-stroke" cx="0" cy="0" r="1" transform="matrix(38.6,0,0,38.6,112.4,157.9)" fill="rgb(64,196,255)"/><path d=" M 136.836 155.714 C 136.764 155.253 136.692 154.986 136.692 154.986 C 136.692 154.986 136.508 155.191 136.21 155.591 C 136.118 154.493 135.923 153.416 135.615 152.348 C 135.235 151.024 134.743 149.741 134.127 148.51 C 133.737 147.689 133.285 146.909 132.762 146.17 C 132.577 145.893 132.382 145.616 132.187 145.359 C 131.284 143.881 130.237 142.968 129.036 141.254 C 128.256 139.941 127.713 138.493 127.456 136.985 C 127.128 137.898 126.871 138.832 126.696 139.787 C 125.455 138.535 124.387 137.652 123.731 137.046 C 120.549 134.05 120.919 132.5 120.919 132.5 C 120.919 132.5 114.935 139.181 117.522 146.139 C 118.414 148.5 119.964 150.563 121.976 152.081 C 124.48 154.154 127.189 155.776 128.616 159.943 C 127.466 157.757 125.732 155.92 123.607 154.657 C 124.244 156.166 124.572 157.798 124.562 159.43 C 124.562 165.69 119.471 170.77 113.211 170.76 C 112.359 170.76 111.518 170.667 110.697 170.472 C 109.722 170.288 108.778 169.969 107.885 169.518 C 106.561 168.717 105.422 167.66 104.519 166.408 L 104.498 166.377 L 104.703 166.449 C 105.175 166.614 105.647 166.737 106.14 166.829 C 108.059 167.24 110.071 167.004 111.846 166.152 C 113.642 165.156 114.72 164.417 115.602 164.715 L 115.623 164.715 C 116.485 164.992 117.162 164.15 116.547 163.278 C 115.479 161.903 113.735 161.226 112.01 161.533 C 110.214 161.79 108.572 163.073 106.222 161.831 C 106.068 161.749 105.925 161.667 105.781 161.574 C 105.617 161.482 106.284 161.708 106.13 161.605 C 105.617 161.349 105.124 161.051 104.652 160.723 C 104.621 160.692 105.011 160.836 104.97 160.805 C 104.365 160.394 103.841 159.861 103.431 159.245 C 103.01 158.485 102.969 157.562 103.328 156.772 C 103.544 156.382 103.882 156.063 104.283 155.879 C 104.59 156.033 104.775 156.145 104.775 156.145 C 104.775 156.145 104.642 155.889 104.56 155.755 C 104.59 155.745 104.611 155.755 104.642 155.735 C 104.909 155.848 105.494 156.145 105.812 156.33 C 106.027 156.443 106.202 156.607 106.345 156.813 C 106.345 156.813 106.448 156.761 106.376 156.535 C 106.263 156.258 106.079 156.022 105.822 155.858 L 105.842 155.858 C 106.079 155.981 106.304 156.125 106.52 156.279 C 106.715 155.827 106.807 155.335 106.787 154.842 C 106.807 154.575 106.766 154.298 106.674 154.042 C 106.592 153.877 106.725 153.816 106.869 153.99 C 106.848 153.857 106.797 153.734 106.746 153.611 L 106.746 153.6 C 106.746 153.6 106.828 153.487 106.869 153.446 C 106.971 153.344 107.084 153.251 107.218 153.169 C 107.957 152.707 108.737 152.307 109.547 151.979 C 110.204 151.691 110.748 151.476 110.861 151.404 C 111.025 151.301 111.179 151.178 111.323 151.045 C 111.867 150.583 112.246 149.936 112.37 149.228 C 112.38 149.136 112.39 149.044 112.4 148.941 L 112.4 148.787 C 112.308 148.428 111.692 148.161 108.46 147.853 C 107.32 147.668 106.407 146.817 106.15 145.688 L 106.15 145.698 C 106.109 145.811 106.058 145.934 106.017 146.057 C 106.058 145.934 106.099 145.821 106.15 145.698 L 106.15 145.677 C 106.766 144.066 107.875 142.691 109.311 141.747 C 109.393 141.675 108.983 141.767 109.065 141.695 C 109.342 141.562 109.619 141.439 109.907 141.336 C 110.05 141.275 109.291 140.987 108.613 141.059 C 108.203 141.08 107.792 141.182 107.413 141.347 C 107.577 141.213 108.049 141.028 107.936 141.028 C 107.074 141.193 106.243 141.511 105.483 141.952 C 105.483 141.87 105.494 141.798 105.535 141.726 C 104.929 141.983 104.406 142.393 103.995 142.906 C 104.005 142.814 104.016 142.722 104.016 142.629 C 103.739 142.835 103.482 143.071 103.267 143.338 L 103.256 143.348 C 101.471 142.66 99.531 142.496 97.653 142.865 L 97.632 142.855 L 97.653 142.855 C 97.263 142.537 96.924 142.168 96.657 141.737 L 96.637 141.747 L 96.596 141.726 C 96.473 141.542 96.349 141.336 96.216 141.11 C 96.124 140.946 96.031 140.762 95.939 140.577 C 95.939 140.567 95.929 140.556 95.918 140.556 C 95.877 140.556 95.857 140.731 95.826 140.69 L 95.826 140.679 C 95.498 139.828 95.344 138.914 95.374 137.991 L 95.354 138.001 C 94.831 138.36 94.43 138.883 94.215 139.489 C 94.122 139.704 94.051 139.828 93.989 139.951 L 93.989 139.899 C 93.999 139.787 94.051 139.561 94.04 139.581 C 94.03 139.602 94.02 139.612 94.009 139.622 C 93.856 139.797 93.712 140.002 93.609 140.218 C 93.517 140.413 93.435 140.618 93.373 140.823 C 93.363 140.854 93.373 140.792 93.373 140.72 C 93.373 140.649 93.383 140.515 93.373 140.546 L 93.342 140.618 C 92.655 142.147 92.224 143.779 92.07 145.452 C 92.029 145.739 92.008 146.026 92.019 146.303 L 92.019 146.324 C 91.526 146.858 91.095 147.453 90.715 148.079 C 89.473 150.173 88.55 152.441 87.965 154.811 C 88.375 153.908 88.868 153.046 89.432 152.235 C 88.334 155.017 87.77 157.983 87.77 160.979 C 87.954 160.097 88.201 159.235 88.488 158.383 C 88.314 161.923 88.991 165.454 90.479 168.676 C 92.47 173.141 95.775 176.887 99.952 179.421 C 101.655 180.571 103.513 181.464 105.473 182.069 C 105.73 182.162 105.996 182.254 106.263 182.346 C 106.181 182.316 106.099 182.275 106.017 182.244 C 108.336 182.942 110.758 183.301 113.18 183.301 C 121.77 183.301 124.603 180.027 124.859 179.709 C 125.28 179.329 125.629 178.867 125.875 178.344 C 126.04 178.272 126.204 178.2 126.378 178.128 L 126.481 178.077 L 126.676 177.985 C 127.969 177.379 129.19 176.609 130.299 175.717 C 131.972 174.516 133.162 172.771 133.675 170.78 C 133.983 170.052 133.993 169.241 133.716 168.502 C 133.809 168.358 133.891 168.215 133.993 168.061 C 135.841 165.095 136.887 161.708 137.031 158.219 L 137.031 157.931 C 137.031 157.182 136.97 156.443 136.836 155.714 L 136.836 155.714 Z " fill="rgb(238,238,238)" vector-effect="non-scaling-stroke" stroke-width="1" stroke="rgb(238,238,238)" stroke-linejoin="miter" stroke-linecap="butt" stroke-miterlimit="4"/><path d=" M 578.048 229.398 L 571.521 219.368 C 575.588 214.311 581.687 211.526 587.923 211.501 C 591.537 211.475 595.228 212.398 598.585 214.337 C 602.292 216.49 605.112 219.582 606.906 223.136 L 589.367 222.213 C 584.404 221.923 579.68 224.716 578.048 229.398 Z  M 580.858 232.687 C 580.858 236.634 584.054 239.829 588 239.829 C 591.947 239.829 595.142 236.634 595.142 232.687 C 595.142 228.74 591.947 225.545 588 225.545 C 584.054 225.545 580.858 228.731 580.858 232.687 L 580.858 232.687 Z  M 607.76 225.067 L 595.826 225.682 C 599.063 229.466 599.115 234.925 596.389 239.111 L 586.813 253.839 C 590.785 254.052 594.877 253.181 598.585 251.028 C 607.76 245.732 611.476 234.626 607.76 225.067 L 607.76 225.067 Z  M 578.236 236.753 L 570.265 221.077 C 568.087 224.409 566.814 228.407 566.814 232.687 C 566.814 243.28 574.571 252.053 584.711 253.608 L 590.153 242.947 C 585.232 243.869 580.483 241.17 578.236 236.753 L 578.236 236.753 Z " fill="rgb(238,238,238)" vector-effect="non-scaling-stroke" stroke-width="1" stroke="rgb(238,238,238)" stroke-linejoin="miter" stroke-linecap="butt" stroke-miterlimit="4"/><path d=" M 472.372 570.901 C 461.084 559.613 461.1 541.328 472.372 530.057 C 472.867 529.562 473.634 529.481 474.22 529.846 L 479.853 533.368 C 480.466 533.751 480.717 534.518 480.449 535.189 L 477.632 542.231 C 477.385 542.849 476.758 543.229 476.096 543.163 L 471.245 542.678 C 469.416 547.742 469.454 553.322 471.245 558.28 L 476.096 557.795 C 476.758 557.729 477.385 558.109 477.632 558.727 L 480.449 565.769 C 480.717 566.44 480.466 567.207 479.853 567.591 L 474.22 571.112 C 473.63 571.48 472.864 571.393 472.372 570.901 L 472.372 570.901 Z  M 485.391 535.136 C 486.419 536.879 486.419 539.048 485.391 540.791 C 485.048 541.372 484.252 541.482 483.764 541.015 L 483.245 540.517 C 482.905 540.191 482.828 539.681 483.048 539.265 C 483.478 538.45 483.478 537.476 483.048 536.662 C 482.828 536.246 482.905 535.735 483.245 535.41 L 483.764 534.912 C 484.252 534.445 485.048 534.555 485.391 535.136 L 485.391 535.136 Z  M 493.369 527.211 C 498.596 533.434 498.591 542.498 493.369 548.716 C 492.98 549.179 492.279 549.215 491.843 548.797 L 491.339 548.314 C 490.943 547.934 490.906 547.312 491.258 546.891 C 495.577 541.716 495.573 534.207 491.258 529.036 C 490.906 528.615 490.943 527.993 491.339 527.613 L 491.843 527.13 C 492.279 526.711 492.98 526.748 493.369 527.211 L 493.369 527.211 Z  M 489.373 531.117 C 492.506 535.143 492.511 540.777 489.373 544.81 C 488.991 545.3 488.269 545.353 487.821 544.923 L 487.315 544.438 C 486.933 544.072 486.881 543.474 487.204 543.054 C 489.51 540.05 489.51 535.877 487.204 532.873 C 486.881 532.453 486.933 531.855 487.315 531.488 L 487.821 531.003 C 488.269 530.574 488.991 530.627 489.373 531.117 L 489.373 531.117 Z " fill="rgb(238,238,238)" vector-effect="non-scaling-stroke" stroke-width="1" stroke="rgb(238,238,238)" stroke-linejoin="miter" stroke-linecap="butt" stroke-miterlimit="4"/><path d=" M 198.282 620.189 L 199.714 620.189 L 199.714 609.844 L 198.282 609.844 C 197.491 609.844 196.85 609.202 196.85 608.411 L 196.85 604.99 C 196.85 604.199 197.491 603.558 198.282 603.558 L 206.303 603.558 C 207.094 603.558 207.735 604.199 207.735 604.99 L 207.735 620.189 L 209.167 620.189 C 209.958 620.189 210.6 620.83 210.6 621.621 L 210.6 625.042 C 210.6 625.833 209.958 626.475 209.167 626.475 L 198.282 626.475 C 197.491 626.475 196.85 625.833 196.85 625.042 L 196.85 621.621 C 196.85 620.83 197.491 620.189 198.282 620.189 Z  M 203.725 589.808 C 200.877 589.808 198.568 592.116 198.568 594.964 C 198.568 597.812 200.877 600.12 203.725 600.12 C 206.572 600.12 208.881 597.812 208.881 594.964 C 208.881 592.116 206.572 589.808 203.725 589.808 Z " fill="rgb(238,238,238)" vector-effect="non-scaling-stroke" stroke-width="1" stroke="rgb(238,238,238)" stroke-linejoin="miter" stroke-linecap="butt" stroke-miterlimit="4"/><path d=" M 374.673 114 L 343.128 114 C 341.118 114 339.488 115.63 339.488 117.64 L 339.488 139.478 C 339.488 141.489 341.118 143.118 343.128 143.118 L 374.673 143.118 C 376.683 143.118 378.312 141.489 378.312 139.478 L 378.312 117.64 C 378.312 115.63 376.683 114 374.673 114 Z  M 374.673 117.64 L 374.673 120.734 C 372.972 122.118 370.262 124.271 364.467 128.809 C 363.19 129.813 360.661 132.227 358.9 132.198 C 357.141 132.227 354.61 129.813 353.334 128.809 C 347.54 124.272 344.829 122.119 343.128 120.734 L 343.128 117.64 L 374.673 117.64 Z  M 343.128 139.478 L 343.128 125.404 C 344.866 126.788 347.33 128.73 351.085 131.671 C 352.743 132.976 355.645 135.856 358.9 135.838 C 362.14 135.856 365.005 133.018 366.715 131.672 C 370.47 128.731 372.935 126.789 374.673 125.404 L 374.673 139.478 L 343.128 139.478 Z " fill="rgb(238,238,238)" vector-effect="non-scaling-stroke" stroke-width="1" stroke="rgb(238,238,238)" stroke-linejoin="miter" stroke-linecap="butt" stroke-miterlimit="4"/><path d=" M 477.149 349.398 L 477.149 349.398 L 477.149 259.31 C 477.149 254.31 473.089 250.25 468.089 250.25 L 263.56 250.25 C 258.56 250.25 254.5 254.31 254.5 259.31 L 254.5 349.398 C 254.5 354.399 258.56 358.458 263.56 358.458 L 447.065 358.458 L 455.517 364.293 L 477.149 379.228 L 477.149 349.398 Z " fill-rule="evenodd" fill="rgb(0,145,234)"/><path d="M 295.667 274.837 L 430.583 274.837 C 434.815 274.837 438.25 277.75 438.25 281.337 L 438.25 281.337 C 438.25 284.925 434.815 287.837 430.583 287.837 L 295.667 287.837 C 291.435 287.837 288 284.925 288 281.337 L 288 281.337 C 288 277.75 291.435 274.837 295.667 274.837 Z" style="stroke:none;fill:#EBEBEB;stroke-miterlimit:10;"/><path d="M 297.859 300 L 430.641 300 C 434.84 300 438.25 302.913 438.25 306.5 L 438.25 306.5 C 438.25 310.087 434.84 313 430.641 313 L 297.859 313 C 293.66 313 290.25 310.087 290.25 306.5 L 290.25 306.5 C 290.25 302.913 293.66 300 297.859 300 Z" style="stroke:none;fill:#EBEBEB;stroke-miterlimit:10;"/><path d="M 333.75 324.5 L 428.75 324.5 C 432.337 324.5 435.25 327.413 435.25 331 L 435.25 331 C 435.25 334.587 432.337 337.5 428.75 337.5 L 333.75 337.5 C 330.163 337.5 327.25 334.587 327.25 331 L 327.25 331 C 327.25 327.413 330.163 324.5 333.75 324.5 Z" style="stroke:none;fill:#EBEBEB;stroke-miterlimit:10;"/></g></svg>