<?xml version="1.0" standalone="no"?><!-- Generator: Gravit.io --><svg xmlns="http://www.w3.org/2000/svg" xmlns:xlink="http://www.w3.org/1999/xlink" style="isolation:isolate" viewBox="0 0 300 250" width="300" height="250"><defs><clipPath id="_clipPath_tcvWTBdH1gAINCaLKh03ElkYSMgY3ntz"><rect width="300" height="250"/></clipPath></defs><g clip-path="url(#_clipPath_tcvWTBdH1gAINCaLKh03ElkYSMgY3ntz)"><path d=" M 49.04 195.42 L 11.9 195.42 L 11.9 127.62 L 49.04 127.62 L 49.04 195.42 L 49.04 195.42 Z  M 47.54 156.36 L 47.54 156.36 L 47.54 156.36 Q 47.54 150.48 43.76 147.06 L 43.76 147.06 L 43.76 147.06 Q 39.98 143.64 32.72 143.64 L 32.72 143.64 L 14.84 143.64 L 14.84 150.48 L 19.04 150.48 L 19.04 175.8 L 14.84 175.8 L 14.84 182.64 L 33.08 182.64 L 33.08 175.8 L 27.08 175.8 L 27.08 169.56 L 33.08 169.56 L 33.08 169.56 Q 38.84 169.56 43.19 166.29 L 43.19 166.29 L 43.19 166.29 Q 47.54 163.02 47.54 156.36 Z  M 38.9 156.48 L 38.9 156.48 L 38.9 156.48 Q 38.9 159.3 37.31 161.04 L 37.31 161.04 L 37.31 161.04 Q 35.72 162.78 31.58 162.78 L 31.58 162.78 L 27.08 162.78 L 27.08 150.48 L 31.7 150.48 L 31.7 150.48 Q 35.72 150.48 37.31 152.04 L 37.31 152.04 L 37.31 152.04 Q 38.9 153.6 38.9 156.48 Z  M 80.42 195.42 L 47.84 195.42 L 47.84 127.62 L 80.42 127.62 L 80.42 195.42 L 80.42 195.42 Z  M 64.16 154.98 L 64.16 154.98 L 64.16 154.98 Q 56.84 154.98 53.24 159.24 L 53.24 159.24 L 53.24 159.24 Q 49.64 163.5 49.64 169.44 L 49.64 169.44 L 49.64 169.44 Q 49.64 175.98 53.57 179.61 L 53.57 179.61 L 53.57 179.61 Q 57.5 183.24 63.74 183.24 L 63.74 183.24 L 63.74 183.24 Q 70.22 183.24 74.42 179.4 L 74.42 179.4 L 74.42 179.4 Q 78.62 175.56 78.62 169.14 L 78.62 169.14 L 78.62 169.14 Q 78.62 163.44 75.05 159.21 L 75.05 159.21 L 75.05 159.21 Q 71.48 154.98 64.16 154.98 Z  M 63.98 177.3 L 63.98 177.3 L 63.98 177.3 Q 60.8 177.3 59.21 174.9 L 59.21 174.9 L 59.21 174.9 Q 57.62 172.5 57.62 169.02 L 57.62 169.02 L 57.62 169.02 Q 57.62 165.18 59.33 163.05 L 59.33 163.05 L 59.33 163.05 Q 61.04 160.92 64.04 160.92 L 64.04 160.92 L 64.04 160.92 Q 66.8 160.92 68.72 162.84 L 68.72 162.84 L 68.72 162.84 Q 70.64 164.76 70.64 168.9 L 70.64 168.9 L 70.64 168.9 Q 70.64 172.8 68.81 175.05 L 68.81 175.05 L 68.81 175.05 Q 66.98 177.3 63.98 177.3 Z  M 106.82 195.42 L 79.22 195.42 L 79.22 127.62 L 106.82 127.62 L 106.82 195.42 L 106.82 195.42 Z  M 98.66 155.22 L 98.66 155.22 L 98.66 155.22 Q 95.9 155.22 94.43 156.81 L 94.43 156.81 L 94.43 156.81 Q 92.96 158.4 92.3 160.74 L 92.3 160.74 L 92.3 155.58 L 81.26 155.58 L 81.26 161.46 L 85.16 161.46 L 85.16 176.82 L 81.56 176.82 L 81.56 182.64 L 97.7 182.64 L 97.7 176.82 L 92.9 176.82 L 92.9 165.54 L 92.9 165.54 Q 92.9 163.56 93.89 162.54 L 93.89 162.54 L 93.89 162.54 Q 94.88 161.52 96.2 161.52 L 96.2 161.52 L 96.2 161.52 Q 97.1 161.52 98.3 162.24 L 98.3 162.24 L 99.32 166.86 L 105.2 166.2 L 104 156.72 L 104 156.72 Q 102.62 155.88 101.21 155.55 L 101.21 155.55 L 101.21 155.55 Q 99.8 155.22 98.66 155.22 Z  M 130.76 195.42 L 105.68 195.42 L 105.68 127.62 L 130.76 127.62 L 130.76 195.42 L 130.76 195.42 Z  M 130.16 174.24 L 130.16 174.24 L 124.52 172.5 L 124.52 172.5 Q 124.16 175.5 123.05 176.13 L 123.05 176.13 L 123.05 176.13 Q 121.94 176.76 121.22 176.76 L 121.22 176.76 L 121.22 176.76 Q 118.22 176.76 118.22 173.22 L 118.22 173.22 L 118.22 161.1 L 127.94 161.1 L 127.94 155.58 L 118.22 155.58 L 118.22 147.36 L 110.48 147.36 L 110.48 155.58 L 106.64 155.58 L 106.64 161.1 L 110.48 161.1 L 110.48 174.54 L 110.48 174.54 Q 110.48 178.74 113.15 180.99 L 113.15 180.99 L 113.15 180.99 Q 115.82 183.24 120.32 183.24 L 120.32 183.24 L 120.32 183.24 Q 129.02 183.24 130.16 174.24 Z  M 161.18 195.42 L 129.56 195.42 L 129.56 127.62 L 161.18 127.62 L 161.18 195.42 L 161.18 195.42 Z  M 134.24 157.5 L 134.24 157.5 L 133.04 164.52 L 139.22 165.18 L 140.24 161.34 L 140.24 161.34 Q 141.2 160.86 142.19 160.71 L 142.19 160.71 L 142.19 160.71 Q 143.18 160.56 144.38 160.56 L 144.38 160.56 L 144.38 160.56 Q 147.68 160.56 148.25 162.54 L 148.25 162.54 L 148.25 162.54 Q 148.82 164.52 148.82 166.62 L 148.82 166.62 L 148.82 167.52 L 148.82 167.52 Q 146.96 167.28 144.38 167.28 L 144.38 167.28 L 144.38 167.28 Q 139.76 167.28 135.77 168.9 L 135.77 168.9 L 135.77 168.9 Q 131.78 170.52 131.78 175.5 L 131.78 175.5 L 131.78 175.5 Q 131.78 179.76 134.48 181.5 L 134.48 181.5 L 134.48 181.5 Q 137.18 183.24 140.12 183.24 L 140.12 183.24 L 140.12 183.24 Q 143.42 183.24 145.55 181.56 L 145.55 181.56 L 145.55 181.56 Q 147.68 179.88 148.82 177.84 L 148.82 177.84 L 148.82 177.9 L 148.82 177.9 Q 149.42 183.24 154.76 183.24 L 154.76 183.24 L 154.76 183.24 Q 157.28 183.24 159.62 181.98 L 159.62 181.98 L 159.56 177.9 L 159.56 177.9 Q 158.96 178.08 158.42 178.08 L 158.42 178.08 L 158.42 178.08 Q 156.56 178.08 156.56 175.98 L 156.56 175.98 L 156.56 164.22 L 156.56 164.22 Q 156.56 159.6 153.38 157.32 L 153.38 157.32 L 153.38 157.32 Q 150.2 155.04 145.82 155.04 L 145.82 155.04 L 145.82 155.04 Q 142.52 155.04 140.15 155.55 L 140.15 155.55 L 140.15 155.55 Q 137.78 156.06 134.24 157.5 Z  M 148.82 171.24 L 148.82 171.6 L 148.82 171.6 Q 148.52 174.78 146.75 176.25 L 146.75 176.25 L 146.75 176.25 Q 144.98 177.72 142.94 177.72 L 142.94 177.72 L 142.94 177.72 Q 141.2 177.72 140.48 176.82 L 140.48 176.82 L 140.48 176.82 Q 139.76 175.92 139.76 174.6 L 139.76 174.6 L 139.76 174.6 Q 139.76 172.38 141.32 171.63 L 141.32 171.63 L 141.32 171.63 Q 142.88 170.88 144.92 170.88 L 144.92 170.88 L 144.92 170.88 Q 145.88 170.88 146.87 171 L 146.87 171 L 146.87 171 Q 147.86 171.12 148.82 171.24 L 148.82 171.24 L 148.82 171.24 Z  M 178.16 195.42 L 159.92 195.42 L 159.92 127.62 L 178.16 127.62 L 178.16 195.42 L 178.16 195.42 Z  M 161.6 176.82 L 161.6 182.64 L 176.54 182.64 L 176.54 176.82 L 172.94 176.82 L 172.94 141.36 L 161.3 141.36 L 161.3 147.24 L 165.2 147.24 L 165.2 176.82 L 161.6 176.82 L 161.6 176.82 Z  M 49.04 123.42 L 11.9 123.42 L 11.9 55.62 L 49.04 55.62 L 49.04 123.42 L 49.04 123.42 Z  M 47.54 84.36 L 47.54 84.36 L 47.54 84.36 Q 47.54 78.48 43.76 75.06 L 43.76 75.06 L 43.76 75.06 Q 39.98 71.64 32.72 71.64 L 32.72 71.64 L 14.84 71.64 L 14.84 78.48 L 19.04 78.48 L 19.04 103.8 L 14.84 103.8 L 14.84 110.64 L 33.08 110.64 L 33.08 103.8 L 27.08 103.8 L 27.08 97.56 L 33.08 97.56 L 33.08 97.56 Q 38.84 97.56 43.19 94.29 L 43.19 94.29 L 43.19 94.29 Q 47.54 91.02 47.54 84.36 Z  M 38.9 84.48 L 38.9 84.48 L 38.9 84.48 Q 38.9 87.3 37.31 89.04 L 37.31 89.04 L 37.31 89.04 Q 35.72 90.78 31.58 90.78 L 31.58 90.78 L 27.08 90.78 L 27.08 78.48 L 31.7 78.48 L 31.7 78.48 Q 35.72 78.48 37.31 80.04 L 37.31 80.04 L 37.31 80.04 Q 38.9 81.6 38.9 84.48 Z  M 66.08 123.42 L 47.84 123.42 L 47.84 55.62 L 66.08 55.62 L 66.08 123.42 L 66.08 123.42 Z  M 49.52 104.82 L 49.52 110.64 L 64.46 110.64 L 64.46 104.82 L 60.86 104.82 L 60.86 69.36 L 49.22 69.36 L 49.22 75.24 L 53.12 75.24 L 53.12 104.82 L 49.52 104.82 L 49.52 104.82 Z  M 96.38 123.42 L 64.76 123.42 L 64.76 55.62 L 96.38 55.62 L 96.38 123.42 L 96.38 123.42 Z  M 69.44 85.5 L 69.44 85.5 L 68.24 92.52 L 74.42 93.18 L 75.44 89.34 L 75.44 89.34 Q 76.4 88.86 77.39 88.71 L 77.39 88.71 L 77.39 88.71 Q 78.38 88.56 79.58 88.56 L 79.58 88.56 L 79.58 88.56 Q 82.88 88.56 83.45 90.54 L 83.45 90.54 L 83.45 90.54 Q 84.02 92.52 84.02 94.62 L 84.02 94.62 L 84.02 95.52 L 84.02 95.52 Q 82.16 95.28 79.58 95.28 L 79.58 95.28 L 79.58 95.28 Q 74.96 95.28 70.97 96.9 L 70.97 96.9 L 70.97 96.9 Q 66.98 98.52 66.98 103.5 L 66.98 103.5 L 66.98 103.5 Q 66.98 107.76 69.68 109.5 L 69.68 109.5 L 69.68 109.5 Q 72.38 111.24 75.32 111.24 L 75.32 111.24 L 75.32 111.24 Q 78.62 111.24 80.75 109.56 L 80.75 109.56 L 80.75 109.56 Q 82.88 107.88 84.02 105.84 L 84.02 105.84 L 84.02 105.9 L 84.02 105.9 Q 84.62 111.24 89.96 111.24 L 89.96 111.24 L 89.96 111.24 Q 92.48 111.24 94.82 109.98 L 94.82 109.98 L 94.76 105.9 L 94.76 105.9 Q 94.16 106.08 93.62 106.08 L 93.62 106.08 L 93.62 106.08 Q 91.76 106.08 91.76 103.98 L 91.76 103.98 L 91.76 92.22 L 91.76 92.22 Q 91.76 87.6 88.58 85.32 L 88.58 85.32 L 88.58 85.32 Q 85.4 83.04 81.02 83.04 L 81.02 83.04 L 81.02 83.04 Q 77.72 83.04 75.35 83.55 L 75.35 83.55 L 75.35 83.55 Q 72.98 84.06 69.44 85.5 Z  M 84.02 99.24 L 84.02 99.6 L 84.02 99.6 Q 83.72 102.78 81.95 104.25 L 81.95 104.25 L 81.95 104.25 Q 80.18 105.72 78.14 105.72 L 78.14 105.72 L 78.14 105.72 Q 76.4 105.72 75.68 104.82 L 75.68 104.82 L 75.68 104.82 Q 74.96 103.92 74.96 102.6 L 74.96 102.6 L 74.96 102.6 Q 74.96 100.38 76.52 99.63 L 76.52 99.63 L 76.52 99.63 Q 78.08 98.88 80.12 98.88 L 80.12 98.88 L 80.12 98.88 Q 81.08 98.88 82.07 99 L 82.07 99 L 82.07 99 Q 83.06 99.12 84.02 99.24 L 84.02 99.24 L 84.02 99.24 Z  M 124.52 123.42 L 95.12 123.42 L 95.12 55.62 L 124.52 55.62 L 124.52 123.42 L 124.52 123.42 Z  M 123.02 100.56 L 123.02 100.56 L 116.54 99.36 L 116.54 99.36 Q 115.76 105.12 111.2 105.12 L 111.2 105.12 L 111.2 105.12 Q 105.02 105.12 105.02 97.2 L 105.02 97.2 L 105.02 97.2 Q 105.02 92.94 106.76 91.05 L 106.76 91.05 L 106.76 91.05 Q 108.5 89.16 110.96 89.16 L 110.96 89.16 L 110.96 89.16 Q 112.7 89.16 115.04 89.94 L 115.04 89.94 L 115.94 94.38 L 122.12 93.72 L 120.92 85.5 L 120.92 85.5 Q 118.46 84.18 115.91 83.61 L 115.91 83.61 L 115.91 83.61 Q 113.36 83.04 111.14 83.04 L 111.14 83.04 L 111.14 83.04 Q 105.26 83.04 101.12 86.7 L 101.12 86.7 L 101.12 86.7 Q 96.98 90.36 96.98 97.56 L 96.98 97.56 L 96.98 97.56 Q 96.98 104.4 100.79 107.82 L 100.79 107.82 L 100.79 107.82 Q 104.6 111.24 110.48 111.24 L 110.48 111.24 L 110.48 111.24 Q 117.02 111.24 119.81 107.76 L 119.81 107.76 L 119.81 107.76 Q 122.6 104.28 123.02 100.56 Z  M 153.5 123.42 L 123.38 123.42 L 123.38 55.62 L 153.5 55.62 L 153.5 123.42 L 153.5 123.42 Z  M 151.76 102.12 L 151.76 102.12 L 145.28 100.92 L 145.28 100.92 Q 145.04 102.12 143.93 103.62 L 143.93 103.62 L 143.93 103.62 Q 142.82 105.12 139.7 105.12 L 139.7 105.12 L 139.7 105.12 Q 134 105.12 133.34 98.7 L 133.34 98.7 L 151.1 98.7 L 151.1 98.7 Q 151.52 96.78 151.52 94.8 L 151.52 94.8 L 151.52 94.8 Q 151.46 89.52 147.95 86.28 L 147.95 86.28 L 147.95 86.28 Q 144.44 83.04 138.8 83.04 L 138.8 83.04 L 138.8 83.04 Q 132.38 83.04 128.81 87.21 L 128.81 87.21 L 128.81 87.21 Q 125.24 91.38 125.24 97.62 L 125.24 97.62 L 125.24 97.62 Q 125.24 104.4 129.17 107.82 L 129.17 107.82 L 129.17 107.82 Q 133.1 111.24 139.16 111.24 L 139.16 111.24 L 139.16 111.24 Q 144.98 111.24 148.22 108.48 L 148.22 108.48 L 148.22 108.48 Q 151.46 105.72 151.76 102.12 Z  M 143.54 94.2 L 143.54 94.2 L 133.4 94.2 L 133.4 94.2 Q 133.76 91.68 135.08 90.12 L 135.08 90.12 L 135.08 90.12 Q 136.4 88.56 138.8 88.56 L 138.8 88.56 L 138.8 88.56 Q 141.56 88.56 142.67 90.36 L 142.67 90.36 L 142.67 90.36 Q 143.78 92.16 143.54 94.2 Z  M 206 123.42 L 152.18 123.42 L 152.18 55.62 L 206 55.62 L 206 123.42 L 206 123.42 Z  M 193.28 95.4 L 193.28 110.64 L 204.62 110.64 L 204.62 104.82 L 201.02 104.82 L 201.02 92.4 L 201.02 92.4 Q 201.02 87.6 198.2 85.32 L 198.2 85.32 L 198.2 85.32 Q 195.38 83.04 191.72 83.04 L 191.72 83.04 L 191.72 83.04 Q 185.3 83.04 182.9 88.86 L 182.9 88.86 L 182.9 88.86 Q 181.94 85.92 179.48 84.48 L 179.48 84.48 L 179.48 84.48 Q 177.02 83.04 174.08 83.04 L 174.08 83.04 L 174.08 83.04 Q 168.44 83.04 165.86 87.66 L 165.86 87.66 L 165.86 83.58 L 154.58 83.58 L 154.58 89.46 L 158.12 89.46 L 158.12 104.82 L 154.52 104.82 L 154.52 110.64 L 171.02 110.64 L 171.02 104.82 L 165.86 104.82 L 165.86 95.34 L 165.86 95.34 Q 165.86 92.52 167.06 90.72 L 167.06 90.72 L 167.06 90.72 Q 168.26 88.92 171.08 88.92 L 171.08 88.92 L 171.08 88.92 Q 173.36 88.92 174.53 90.42 L 174.53 90.42 L 174.53 90.42 Q 175.7 91.92 175.7 95.4 L 175.7 95.4 L 175.7 110.64 L 187.04 110.64 L 187.04 104.82 L 183.44 104.82 L 183.44 95.34 L 183.44 95.34 Q 183.44 92.52 184.67 90.72 L 184.67 90.72 L 184.67 90.72 Q 185.9 88.92 188.66 88.92 L 188.66 88.92 L 188.66 88.92 Q 190.94 88.92 192.11 90.42 L 192.11 90.42 L 192.11 90.42 Q 193.28 91.92 193.28 95.4 L 193.28 95.4 L 193.28 95.4 Z  M 234.86 123.42 L 204.74 123.42 L 204.74 55.62 L 234.86 55.62 L 234.86 123.42 L 234.86 123.42 Z  M 233.12 102.12 L 233.12 102.12 L 226.64 100.92 L 226.64 100.92 Q 226.4 102.12 225.29 103.62 L 225.29 103.62 L 225.29 103.62 Q 224.18 105.12 221.06 105.12 L 221.06 105.12 L 221.06 105.12 Q 215.36 105.12 214.7 98.7 L 214.7 98.7 L 232.46 98.7 L 232.46 98.7 Q 232.88 96.78 232.88 94.8 L 232.88 94.8 L 232.88 94.8 Q 232.82 89.52 229.31 86.28 L 229.31 86.28 L 229.31 86.28 Q 225.8 83.04 220.16 83.04 L 220.16 83.04 L 220.16 83.04 Q 213.74 83.04 210.17 87.21 L 210.17 87.21 L 210.17 87.21 Q 206.6 91.38 206.6 97.62 L 206.6 97.62 L 206.6 97.62 Q 206.6 104.4 210.53 107.82 L 210.53 107.82 L 210.53 107.82 Q 214.46 111.24 220.52 111.24 L 220.52 111.24 L 220.52 111.24 Q 226.34 111.24 229.58 108.48 L 229.58 108.48 L 229.58 108.48 Q 232.82 105.72 233.12 102.12 Z  M 224.9 94.2 L 224.9 94.2 L 214.76 94.2 L 214.76 94.2 Q 215.12 91.68 216.44 90.12 L 216.44 90.12 L 216.44 90.12 Q 217.76 88.56 220.16 88.56 L 220.16 88.56 L 220.16 88.56 Q 222.92 88.56 224.03 90.36 L 224.03 90.36 L 224.03 90.36 Q 225.14 92.16 224.9 94.2 Z  M 270.32 123.42 L 233.54 123.42 L 233.54 55.62 L 270.32 55.62 L 270.32 123.42 L 270.32 123.42 Z  M 254.06 104.82 L 254.06 110.64 L 269 110.64 L 269 104.82 L 265.4 104.82 L 265.4 92.4 L 265.4 92.4 Q 265.4 87.6 262.58 85.32 L 262.58 85.32 L 262.58 85.32 Q 259.76 83.04 255.92 83.04 L 255.92 83.04 L 255.92 83.04 Q 249.92 83.04 247.22 87.72 L 247.22 87.72 L 247.22 83.58 L 235.58 83.58 L 235.58 89.46 L 239.48 89.46 L 239.48 104.82 L 235.88 104.82 L 235.88 110.64 L 250.82 110.64 L 250.82 104.82 L 247.22 104.82 L 247.22 95.1 L 247.22 95.1 Q 247.28 92.34 248.78 90.63 L 248.78 90.63 L 248.78 90.63 Q 250.28 88.92 253.04 88.92 L 253.04 88.92 L 253.04 88.92 Q 255.32 88.92 256.49 90.42 L 256.49 90.42 L 256.49 90.42 Q 257.66 91.92 257.66 95.4 L 257.66 95.4 L 257.66 104.82 L 254.06 104.82 L 254.06 104.82 Z  M 294.2 123.42 L 269.12 123.42 L 269.12 55.62 L 294.2 55.62 L 294.2 123.42 L 294.2 123.42 Z  M 293.6 102.24 L 293.6 102.24 L 287.96 100.5 L 287.96 100.5 Q 287.6 103.5 286.49 104.13 L 286.49 104.13 L 286.49 104.13 Q 285.38 104.76 284.66 104.76 L 284.66 104.76 L 284.66 104.76 Q 281.66 104.76 281.66 101.22 L 281.66 101.22 L 281.66 89.1 L 291.38 89.1 L 291.38 83.58 L 281.66 83.58 L 281.66 75.36 L 273.92 75.36 L 273.92 83.58 L 270.08 83.58 L 270.08 89.1 L 273.92 89.1 L 273.92 102.54 L 273.92 102.54 Q 273.92 106.74 276.59 108.99 L 276.59 108.99 L 276.59 108.99 Q 279.26 111.24 283.76 111.24 L 283.76 111.24 L 283.76 111.24 Q 292.46 111.24 293.6 102.24 Z " fill-rule="evenodd" fill="rgb(255,255,255)"/></g></svg>