<?xml version="1.0" encoding="UTF-8" standalone="no"?>
<!-- Generator: Adobe Illustrator 19.0.0, SVG Export Plug-In . SVG Version: 6.00 Build 0)  -->

<svg
   xmlns:dc="http://purl.org/dc/elements/1.1/"
   xmlns:cc="http://creativecommons.org/ns#"
   xmlns:rdf="http://www.w3.org/1999/02/22-rdf-syntax-ns#"
   xmlns:svg="http://www.w3.org/2000/svg"
   xmlns="http://www.w3.org/2000/svg"
   xmlns:sodipodi="http://sodipodi.sourceforge.net/DTD/sodipodi-0.dtd"
   xmlns:inkscape="http://www.inkscape.org/namespaces/inkscape"
   version="1.1"
   id="Capa_1"
   x="0px"
   y="0px"
   viewBox="0 0 480 480"
   style="enable-background:new 0 0 480 480;"
   xml:space="preserve"
   sodipodi:docname="hospital.svg"
   inkscape:version="0.92.3 (3ce5693, 2018-03-11)"><metadata
   id="metadata310"><rdf:RDF><cc:Work
       rdf:about=""><dc:format>image/svg+xml</dc:format><dc:type
         rdf:resource="http://purl.org/dc/dcmitype/StillImage" /></cc:Work></rdf:RDF></metadata><defs
   id="defs308" /><sodipodi:namedview
   pagecolor="#ffffff"
   bordercolor="#666666"
   borderopacity="1"
   objecttolerance="10"
   gridtolerance="10"
   guidetolerance="10"
   inkscape:pageopacity="0"
   inkscape:pageshadow="2"
   inkscape:window-width="1869"
   inkscape:window-height="1025"
   id="namedview306"
   showgrid="false"
   inkscape:zoom="0.49166667"
   inkscape:cx="-87.457627"
   inkscape:cy="240"
   inkscape:window-x="51"
   inkscape:window-y="27"
   inkscape:window-maximized="1"
   inkscape:current-layer="Capa_1" />
<g
   id="g219"
   style="fill:#00006e;fill-opacity:1">
	<g
   id="g217"
   style="fill:#00006e;fill-opacity:1">
		<path
   d="M368,208v48h64v-48H368z M416,240h-32v-16h32V240z"
   id="path215"
   style="fill:#00006e;fill-opacity:1" />
	</g>
</g>
<g
   id="g225"
   style="fill:#00006e;fill-opacity:1">
	<g
   id="g223"
   style="fill:#00006e;fill-opacity:1">
		<path
   d="M368,272v48h64v-48H368z M416,304h-32v-16h32V304z"
   id="path221"
   style="fill:#00006e;fill-opacity:1" />
	</g>
</g>
<g
   id="g231"
   style="fill:#00006e;fill-opacity:1">
	<g
   id="g229"
   style="fill:#00006e;fill-opacity:1">
		<path
   d="M368,336v48h64v-48H368z M416,368h-32v-16h32V368z"
   id="path227"
   style="fill:#00006e;fill-opacity:1" />
	</g>
</g>
<g
   id="g237"
   style="fill:#00006e;fill-opacity:1">
	<g
   id="g235"
   style="fill:#00006e;fill-opacity:1">
		<path
   d="M368,400v48h64v-48H368z M416,432h-32v-16h32V432z"
   id="path233"
   style="fill:#00006e;fill-opacity:1" />
	</g>
</g>
<g
   id="g243"
   style="fill:#00006e;fill-opacity:1">
	<g
   id="g241"
   style="fill:#00006e;fill-opacity:1">
		<path
   d="M272,80V32h-64v48h-48v64h48v48h64v-48h48V80H272z M304,128h-48v48h-32v-48h-48V96h48V48h32v48h48V128z"
   id="path239"
   style="fill:#00006e;fill-opacity:1" />
	</g>
</g>
<g
   id="g249"
   style="fill:#00006e;fill-opacity:1">
	<g
   id="g247"
   style="fill:#00006e;fill-opacity:1">
		<path
   d="M352,176V0H128v176H16v304h448V176H352z M128,464H32V192h96V464z M232,464h-40V320h40V464z M288,464h-40V320h40V464z     M336,464h-32V304H176v160h-32V16h192V464z M448,464h-96V192h96V464z"
   id="path245"
   style="fill:#00006e;fill-opacity:1" />
	</g>
</g>
<g
   id="g255"
   style="fill:#00006e;fill-opacity:1">
	<g
   id="g253"
   style="fill:#00006e;fill-opacity:1">
		<path
   d="M48,208v48h64v-48H48z M96,240H64v-16h32V240z"
   id="path251"
   style="fill:#00006e;fill-opacity:1" />
	</g>
</g>
<g
   id="g261"
   style="fill:#00006e;fill-opacity:1">
	<g
   id="g259"
   style="fill:#00006e;fill-opacity:1">
		<path
   d="M48,272v48h64v-48H48z M96,304H64v-16h32V304z"
   id="path257"
   style="fill:#00006e;fill-opacity:1" />
	</g>
</g>
<g
   id="g267"
   style="fill:#00006e;fill-opacity:1">
	<g
   id="g265"
   style="fill:#00006e;fill-opacity:1">
		<path
   d="M48,336v48h64v-48H48z M96,368H64v-16h32V368z"
   id="path263"
   style="fill:#00006e;fill-opacity:1" />
	</g>
</g>
<g
   id="g273"
   style="fill:#00006e;fill-opacity:1">
	<g
   id="g271"
   style="fill:#00006e;fill-opacity:1">
		<path
   d="M48,400v48h64v-48H48z M96,432H64v-16h32V432z"
   id="path269"
   style="fill:#00006e;fill-opacity:1" />
	</g>
</g>
<g
   id="g275">
</g>
<g
   id="g277">
</g>
<g
   id="g279">
</g>
<g
   id="g281">
</g>
<g
   id="g283">
</g>
<g
   id="g285">
</g>
<g
   id="g287">
</g>
<g
   id="g289">
</g>
<g
   id="g291">
</g>
<g
   id="g293">
</g>
<g
   id="g295">
</g>
<g
   id="g297">
</g>
<g
   id="g299">
</g>
<g
   id="g301">
</g>
<g
   id="g303">
</g>
</svg>