<?xml version="1.0" encoding="iso-8859-1"?>
<!-- Generator: Adobe Illustrator 18.0.0, SVG Export Plug-In . SVG Version: 6.00 Build 0)  -->
<!DOCTYPE svg PUBLIC "-//W3C//DTD SVG 1.1//EN" "http://www.w3.org/Graphics/SVG/1.1/DTD/svg11.dtd">
<svg version="1.1" id="Capa_1" xmlns="http://www.w3.org/2000/svg" xmlns:xlink="http://www.w3.org/1999/xlink" x="0px" y="0px"
	 viewBox="0 0 488.257 488.257" style="enable-background:new 0 0 488.257 488.257;" xml:space="preserve">
<g>
	<path d="M177.03,101.001c9.214,13.433,24.67,22.266,42.154,22.266c17.506,0,32.979-8.854,42.189-22.314
		c21.092-11.398,20.844-30.752,20.73-39.079c-0.47-34.328-26.127-60.329-61.007-61.824c-18.345-0.793-28.996,8.105-32.324,11.437
		c-2.893,0.663-9.198,2.611-15.5,7.86c-7.547,6.287-16.645,18.732-17.128,42.323C155.973,70.03,155.591,89.478,177.03,101.001z
		 M219.184,114.767c-23.484,0-42.59-19.105-42.59-42.589V60.401c10.912-4.214,17.69-15.624,21.087-23.079
		c9.262,9.682,31.567,28.77,64.091,29.846v5.01C261.773,95.661,242.668,114.767,219.184,114.767z M164.641,61.844
		c0.781-38.133,25.795-42.088,26.834-42.234c1.058-0.135,2.044-0.686,2.731-1.501c0.355-0.421,8.9-10.316,26.525-9.566
		c30.23,1.296,52.466,23.774,52.871,53.448c0.071,5.185,0.175,13.258-4.429,20.729c0.717-3.403,1.1-6.927,1.1-10.541V66.79
		c1.59-0.675,2.677-2.274,2.59-4.102c-0.112-2.344-2.101-4.17-4.447-4.043c-42.378,2.009-68.492-31.602-68.747-31.937l-0.009,0.007
		c-0.521-0.69-1.248-1.234-2.138-1.506c-2.24-0.686-4.62,0.578-5.306,2.823c-0.073,0.239-7.731,23.962-22.808,25.44
		c-2.336,0.229-4.044,2.308-3.815,4.644c0.154,1.574,1.155,2.851,2.501,3.455v10.606c0,3.746,0.417,7.395,1.186,10.913
		C165.158,76.615,164.492,69.191,164.641,61.844z"/>
	<path d="M220.591,82.704h-5.12c-9.872,0-17.904,8.032-17.904,17.904v5.291c0,2.347,1.903,4.25,4.25,4.25
		c2.347,0,4.25-1.903,4.25-4.25v-5.291c0-5.185,4.219-9.404,9.404-9.404h5.12c5.185,0,9.404,4.219,9.404,9.404v5.291
		c0,2.347,1.903,4.25,4.25,4.25c2.348,0,4.25-1.903,4.25-4.25v-5.291C238.495,90.735,230.463,82.704,220.591,82.704z"/>
	<path d="M222.787,98.337h-9.512c-2.347,0-4.25,1.903-4.25,4.25c0,2.347,1.903,4.25,4.25,4.25h9.512c2.347,0,4.25-1.903,4.25-4.25
		C227.037,100.24,225.135,98.337,222.787,98.337z"/>
	<path d="M472.772,298.535h-28.478c0.826-1.682,1.303-3.566,1.303-5.563c0-6.735-5.282-12.244-11.918-12.641v-14.125
		c13.589-10.343,22.382-26.677,22.382-45.033c0-21.306-12.134-40.92-31.069-50.502l17.073-17.073c5.427-5.427,5.427-14.257,0-19.685
		l-3.19-3.189c-2.629-2.629-6.124-4.078-9.842-4.078c-3.718,0-7.213,1.448-9.842,4.077l-46.944,46.944
		c-5.427,5.427-5.427,14.257,0,19.684l3.19,3.19c2.713,2.713,6.277,4.07,9.842,4.07c2.539,0,5.073-0.702,7.305-2.079
		c4.122,4.421,9.99,7.193,16.497,7.193c5.039,0,9.697-1.661,13.457-4.464c3.223,4.652,4.967,10.17,4.967,15.911
		c0,15.448-12.568,28.016-28.017,28.016c-10.301,0-19.479-5.523-24.367-14.191c6.032-0.182,10.886-5.134,10.886-11.209
		c0-6.19-5.036-11.227-11.227-11.227h-16.257l-78.553-78.574c-4.954-5.992-12.44-9.817-20.805-9.817h-22.475
		c-2.172,0-3.994,1.637-4.226,3.796c-0.367,3.419-6.692,11.939-13.257,19.158c-6.565-7.219-12.89-15.739-13.257-19.158
		c-0.232-2.159-2.054-3.796-4.226-3.796l-38.42,0.001c-0.088-0.002-0.176-0.002-0.264-0.002c-9.926,0-18.717,6.694-21.441,16.378
		c-0.134,0.487-13.491,48.837-17.961,64.853c-3.286,11.774,4.642,25.565,16.634,28.933c2.972,0.835,7.185,2.017,11.992,3.366v36.82
		c0,2.347,1.903,4.25,4.25,4.25h2.181v19.766H34.067v-19.126h52.417c2.347,0,4.25-1.903,4.25-4.25v-16c0-2.347-1.903-4.25-4.25-4.25
		c-2.347,0-4.25,1.903-4.25,4.25v11.75H34.067v-64.166h36.726c-0.844,3.775-2.283,7.766-3.846,10.296l-6.918,11.205
		c-2.211,3.58-2.528,7.338-0.87,10.313c1.658,2.974,5.023,4.68,9.231,4.68h36.432c4.208,0,7.572-1.706,9.231-4.679
		c1.659-2.974,1.342-6.732-0.869-10.313l-6.92-11.206c-2.461-3.986-4.62-11.591-4.62-16.275v-18.27c0-2.347-1.903-4.25-4.25-4.25
		H75.817c-2.347,0-4.25,1.903-4.25,4.25v15.75h-41.75c-2.347,0-4.25,1.903-4.25,4.25v96.043H15.484c-2.347,0-4.25,1.903-4.25,4.25
		v181.222c0,2.347,1.903,4.25,4.25,4.25h457.288c2.348,0,4.25-1.903,4.25-4.25V302.785
		C477.022,300.438,475.12,298.535,472.772,298.535z M80.067,186.742h13.077v14.02c0,6.284,2.586,15.394,5.888,20.741l6.92,11.206
		c0.543,0.88,0.656,1.466,0.656,1.694c-0.194,0.119-0.751,0.332-1.786,0.332H68.39c-1.035,0-1.592-0.212-1.786-0.332
		c0.001-0.228,0.113-0.814,0.657-1.694l6.919-11.205c3.301-5.346,5.888-14.457,5.888-20.741V186.742z M286.151,152.193
		l18.055,18.059l-18.055,18.055V152.193z M281.901,278.769c2.348,0,4.25-1.903,4.25-4.25v-69.417l38.542,38.351
		c5.335,5.335,11.385,8.041,17.14,8.041c2.983,0,5.887-0.729,8.569-2.196c7.783,13.585,20.97,23.467,36.406,27.01v3.984h-22.493
		c-6.991,0-12.68,5.688-12.68,12.68c0,1.997,0.477,3.881,1.303,5.563h-73.218v-19.766H281.901z M437.098,292.972
		c0,2.305-1.875,4.18-4.18,4.18h-68.603c-2.305,0-4.18-1.875-4.18-4.18s1.875-4.18,4.18-4.18h68.603
		C435.223,288.792,437.098,290.667,437.098,292.972z M425.18,280.292h-29.871v-2.712c1.383,0.102,2.774,0.165,4.18,0.165
		c9.248,0,17.976-2.245,25.691-6.196V280.292z M381.447,194.531l-3.19-3.19c-2.112-2.112-2.112-5.55,0-7.662l46.944-46.944
		c1.024-1.024,2.385-1.588,3.832-1.588c1.447,0,2.808,0.564,3.831,1.588l3.19,3.189c2.113,2.113,2.113,5.551,0.001,7.663
		l-18.622,18.622c-2.585-1.034-5.402-1.609-8.353-1.609c-12.441,0-22.563,10.122-22.563,22.563c0,2.881,0.549,5.635,1.538,8.171
		C385.975,196.578,383.238,196.321,381.447,194.531z M395.018,187.162c0-7.754,6.309-14.063,14.063-14.063
		c7.755,0,14.064,6.309,14.064,14.063c0,7.754-6.309,14.063-14.064,14.063C401.326,201.225,395.018,194.916,395.018,187.162z
		 M399.488,257.688c20.136,0,36.517-16.381,36.517-36.516c0-8.146-2.688-15.95-7.629-22.325c2.073-3.411,3.269-7.411,3.269-11.686
		c0-0.594-0.03-1.181-0.075-1.763c9.988,8.993,15.992,21.963,15.992,35.774c0,26.508-21.565,48.073-48.073,48.073
		c-21.417,0-40.012-14.121-46.027-34.231h12.227C371.26,248.698,384.47,257.688,399.488,257.688z M377.507,223.788
		c0,1.503-1.223,2.727-2.727,2.727h-26.637c-0.002,0-0.004,0-0.006,0h-10.565c-1.504,0-2.727-1.223-2.727-2.727
		s1.223-2.727,2.727-2.727h37.208C376.284,221.061,377.507,222.285,377.507,223.788z M337.572,212.561
		c-6.19,0-11.227,5.036-11.227,11.227s5.036,11.227,11.227,11.227h7.078c0.565,2.254,1.258,4.451,2.08,6.581
		c-5.42,3.25-11.656,0.218-16.034-4.161L289.77,196.71l20.446-20.446l36.288,36.297H337.572z M149.789,142.831
		c1.688-6.003,7.123-10.161,13.303-10.161c0.054,0,0.109,0,0.164,0.001l35.276-0.001c3.595,8.941,15.074,21,17.636,23.624
		c0.8,0.819,1.896,1.281,3.041,1.281s2.241-0.462,3.041-1.281c2.563-2.625,14.041-14.683,17.636-23.624h19.28
		c10.192,0,18.485,8.293,18.485,18.485v119.113H160.766v-30.185c17.004,4.77,36.414,10.212,36.412,10.211
		c5.766,1.621,11.819,0.901,17.044-2.029c1.871-1.049,3.546-2.346,5.013-3.832v5.141c0,7.444,6.056,13.5,13.5,13.5
		c7.444,0,13.5-6.056,13.5-13.5v-49c0-2.347-1.902-4.25-4.25-4.25h-18.5c-2.347,0-4.25,1.903-4.25,4.25v12.42
		c-2.708-2.764-6.087-4.801-9.912-5.876l-36.825-10.358l8.046-26.007c0.694-2.243-0.562-4.622-2.804-5.316
		c-2.243-0.693-4.622,0.562-5.316,2.804l-5.529,17.872l-27.038-7.365C144.745,161.092,149.71,143.114,149.789,142.831z
		 M227.734,249.575v-44.75h10v44.75c0,2.757-2.243,5-5,5C229.977,254.575,227.734,252.332,227.734,249.575z M142.573,226.15
		c-7.579-2.128-12.8-11.102-10.745-18.464c1.329-4.762,3.443-12.379,5.761-20.746l26.792,7.298l-1.292,4.177
		c-0.339,1.095-0.221,2.281,0.327,3.288c0.548,1.007,1.479,1.749,2.583,2.06l41.023,11.54c3.581,1.007,6.555,3.348,8.374,6.592
		c1.82,3.244,2.267,7.003,1.26,10.584c-1.007,3.581-3.348,6.555-6.593,8.374c-3.244,1.82-7.003,2.269-10.587,1.259
		C199.476,242.112,156.797,230.145,142.573,226.15z M167.197,278.769h104.023v19.766H167.197V278.769z M19.734,479.757v-46.682
		h151.75c2.347,0,4.25-1.903,4.25-4.25s-1.903-4.25-4.25-4.25H19.734v-91.499h30.5v60.749c0,2.347,1.903,4.25,4.25,4.25
		c2.347,0,4.25-1.903,4.25-4.25v-60.749h374.148c2.348,0,4.25-1.903,4.25-4.25c0-2.347-1.902-4.25-4.25-4.25H19.734v-17.541h448.788
		v117.54h-28.038c-2.348,0-4.25,1.903-4.25,4.25s1.902,4.25,4.25,4.25h28.038v19.5h-65.038c-2.348,0-4.25,1.903-4.25,4.25
		s1.902,4.25,4.25,4.25h65.038v18.682H19.734z"/>
	<path d="M53.817,161.409c7.49,0,13.583-6.094,13.583-13.584s-6.094-13.583-13.583-13.583c-7.49,0-13.583,6.093-13.583,13.583
		S46.328,161.409,53.817,161.409z M53.817,142.742c2.803,0,5.083,2.28,5.083,5.083c0,2.803-2.28,5.084-5.083,5.084
		c-2.803,0-5.083-2.28-5.083-5.084C48.734,145.022,51.015,142.742,53.817,142.742z"/>
	<path d="M87.151,168.075c5.284,0,9.584-4.299,9.584-9.583c0-5.284-4.299-9.583-9.584-9.583c-5.284,0-9.583,4.299-9.583,9.583
		C77.567,163.776,81.867,168.075,87.151,168.075z M87.151,157.409c0.598,0,1.084,0.486,1.084,1.083c0,0.597-0.486,1.083-1.084,1.083
		c-0.598,0-1.083-0.486-1.083-1.083C86.067,157.894,86.553,157.409,87.151,157.409z"/>
	<path d="M240.484,170.075h23.5c2.348,0,4.25-1.903,4.25-4.25s-1.902-4.25-4.25-4.25h-23.5c-2.348,0-4.25,1.903-4.25,4.25
		S238.137,170.075,240.484,170.075z"/>
</g>
<g>
</g>
<g>
</g>
<g>
</g>
<g>
</g>
<g>
</g>
<g>
</g>
<g>
</g>
<g>
</g>
<g>
</g>
<g>
</g>
<g>
</g>
<g>
</g>
<g>
</g>
<g>
</g>
<g>
</g>
</svg>
